<svg id="icon-erp" xmlns="http://www.w3.org/2000/svg" xmlns:xlink="http://www.w3.org/1999/xlink" width="65.386" height="56.191" viewBox="0 0 65.386 56.191">
  <defs>
    <clipPath id="clip-path">
      <rect id="Retângulo_141" data-name="Retângulo 141" width="65.386" height="56.191" fill="rgba(0,0,0,0)"/>
    </clipPath>
  </defs>
  <g id="Grupo_435" data-name="Grupo 435" clip-path="url(#clip-path)">
    <path id="Caminho_202" data-name="Caminho 202" d="M58.233,54.149H7.149a5.115,5.115,0,0,1-5.106-5.11V26.483c5.519,3.827,13.032,6.507,21.473,7.646a5.113,5.113,0,0,0,5.09,4.692H36.78a5.117,5.117,0,0,0,5.09-4.692c8.438-1.139,15.95-3.819,21.471-7.646V49.039a5.116,5.116,0,0,1-5.108,5.11M39.844,33.715a3.067,3.067,0,0,1-3.064,3.063H28.606a3.065,3.065,0,1,1,0-6.13H36.78a3.069,3.069,0,0,1,3.064,3.067M7.149,11.237H58.233a5.115,5.115,0,0,1,5.108,5.107v7.612c-5.322,4.09-12.985,6.962-21.717,8.142A5.117,5.117,0,0,0,36.78,28.6H28.606A5.117,5.117,0,0,0,23.76,32.1c-8.733-1.18-16.4-4.052-21.717-8.142V16.344a5.113,5.113,0,0,1,5.106-5.107m14.3-4.086a5.115,5.115,0,0,1,5.11-5.108h12.26a5.115,5.115,0,0,1,5.108,5.108V9.192H21.453Zm36.78,2.041H45.975V7.151A7.161,7.161,0,0,0,38.823,0H26.563A7.16,7.16,0,0,0,19.41,7.151V9.192H7.149A7.159,7.159,0,0,0,0,16.344v32.7a7.16,7.16,0,0,0,7.149,7.152H58.233a7.162,7.162,0,0,0,7.152-7.152v-32.7a7.161,7.161,0,0,0-7.152-7.152" transform="translate(0 0)" fill="#fff"/>
    <path id="Caminho_203" data-name="Caminho 203" d="M56.191,15.324h2.042a1.023,1.023,0,0,0,0-2.045H56.191a1.023,1.023,0,0,0,0,2.045" transform="translate(0 0)" fill="#fff"/>
    <path id="Caminho_204" data-name="Caminho 204" d="M40.865,15.324H52.1a1.023,1.023,0,1,0,0-2.045H40.865a1.023,1.023,0,0,0,0,2.045" transform="translate(0 0)" fill="#fff"/>
  </g>
</svg>
